<?xml version="1.0" encoding="UTF-8" standalone="no"?><!DOCTYPE svg PUBLIC "-//W3C//DTD SVG 1.1//EN" "http://www.w3.org/Graphics/SVG/1.1/DTD/svg11.dtd"><svg width="100%" height="100%" viewBox="0 0 300 300" version="1.1" xmlns="http://www.w3.org/2000/svg" xmlns:xlink="http://www.w3.org/1999/xlink" xml:space="preserve" xmlns:serif="http://www.serif.com/" style="fill-rule:evenodd;clip-rule:evenodd;stroke-linejoin:round;stroke-miterlimit:1.41421;"><path d="M76.139,0.96c0,0 -3.28,0.94 -8.183,2.346c-11.472,3.29 -21.168,11.002 -26.954,21.441c-5.786,10.438 -7.189,22.748 -3.899,34.22c22.752,79.344 68.845,240.092 68.845,240.092c0,0 3.28,-0.941 8.184,-2.347c11.472,-3.289 21.168,-11.002 26.954,-21.44c5.786,-10.438 7.188,-22.748 3.899,-34.22c-22.752,-79.344 -68.846,-240.092 -68.846,-240.092Z" style="fill:#fbfdf9;"/><path d="M223.455,112.607c-6.85,-23.89 -31.77,-37.704 -55.66,-30.854c-4.903,1.407 -8.183,2.347 -8.183,2.347c0,0 33.347,116.297 52.08,181.626c6.85,23.89 31.77,37.703 55.66,30.853c4.904,-1.406 8.184,-2.347 8.184,-2.347c0,0 -33.348,-116.296 -52.081,-181.625Z" style="fill:#fbfdf9;"/><path d="M157.746,84.602c0,0 -3.28,0.941 -8.184,2.347c-23.89,6.85 -37.703,31.77 -30.853,55.66c8.212,28.638 17.477,60.948 17.477,60.948c0,0 3.28,-0.941 8.183,-2.347c23.89,-6.85 37.704,-31.77 30.853,-55.66c-8.211,-28.638 -17.476,-60.948 -17.476,-60.948Z" style="fill:#fbfdf9;"/></svg>